<svg width="24" height="24" viewBox="0 0 24 24" fill="none" xmlns="http://www.w3.org/2000/svg">
<g id="arrow-square-up">
<g id="vuesax/bulk/arrow-square-up">
<g id="arrow-square-up_2">
<path id="Vector" d="M16.19 2H7.81C4.17 2 2 4.17 2 7.81V16.18C2 19.83 4.17 22 7.81 22H16.18C19.82 22 21.99 19.83 21.99 16.19V7.81C22 4.17 19.83 2 16.19 2Z" fill="#F3EDFF"/>
<g id="Vector_2">
<mask id="path-2-inside-1_3771_63746" fill="white">
<path d="M15.5302 14.2091C15.3402 14.2091 15.1502 14.1391 15.0002 13.9891L12.0002 10.9891L9.00016 13.9891C8.71016 14.2791 8.23016 14.2791 7.94016 13.9891C7.65016 13.6991 7.65016 13.2191 7.94016 12.9291L11.4702 9.39914C11.7602 9.10914 12.2402 9.10914 12.5302 9.39914L16.0602 12.9291C16.3502 13.2191 16.3502 13.6991 16.0602 13.9891C15.9102 14.1391 15.7202 14.2091 15.5302 14.2091Z"/>
</mask>
<path d="M15.5302 14.2091C15.3402 14.2091 15.1502 14.1391 15.0002 13.9891L12.0002 10.9891L9.00016 13.9891C8.71016 14.2791 8.23016 14.2791 7.94016 13.9891C7.65016 13.6991 7.65016 13.2191 7.94016 12.9291L11.4702 9.39914C11.7602 9.10914 12.2402 9.10914 12.5302 9.39914L16.0602 12.9291C16.3502 13.2191 16.3502 13.6991 16.0602 13.9891C15.9102 14.1391 15.7202 14.2091 15.5302 14.2091Z" fill="#8447FF"/>
<path d="M15.0002 13.9891L13.9395 15.0498L15.0002 13.9891ZM12.0002 10.9891L13.0608 9.92848L12.0002 8.86782L10.9395 9.92848L12.0002 10.9891ZM7.94016 12.9291L9.00082 13.9898L7.94016 12.9291ZM11.4702 9.39914L10.4095 8.33848L10.4095 8.33848L11.4702 9.39914ZM12.5302 9.39914L13.5908 8.33848V8.33848L12.5302 9.39914ZM16.0602 12.9291L14.9995 13.9898L16.0602 12.9291ZM15.5302 12.7091C15.7165 12.7091 15.9147 12.7824 16.0608 12.9285L13.9395 15.0498C14.3856 15.4959 14.9638 15.7091 15.5302 15.7091V12.7091ZM16.0608 12.9285L13.0608 9.92848L10.9395 12.0498L13.9395 15.0498L16.0608 12.9285ZM10.9395 9.92848L7.9395 12.9285L10.0608 15.0498L13.0608 12.0498L10.9395 9.92848ZM7.9395 12.9285C8.23528 12.6327 8.70503 12.6327 9.00082 12.9285L6.8795 15.0498C7.75528 15.9256 9.18503 15.9256 10.0608 15.0498L7.9395 12.9285ZM9.00082 12.9285C9.2966 13.2243 9.2966 13.694 9.00082 13.9898L6.8795 11.8685C6.00371 12.7443 6.00371 14.174 6.8795 15.0498L9.00082 12.9285ZM9.00082 13.9898L12.5308 10.4598L10.4095 8.33848L6.8795 11.8685L9.00082 13.9898ZM12.5308 10.4598C12.235 10.7556 11.7653 10.7556 11.4695 10.4598L13.5908 8.33848C12.715 7.46269 11.2853 7.46269 10.4095 8.33848L12.5308 10.4598ZM11.4695 10.4598L14.9995 13.9898L17.1208 11.8685L13.5908 8.33848L11.4695 10.4598ZM14.9995 13.9898C14.7037 13.694 14.7037 13.2243 14.9995 12.9285L17.1208 15.0498C17.9966 14.174 17.9966 12.7443 17.1208 11.8685L14.9995 13.9898ZM14.9995 12.9285C15.1456 12.7824 15.3438 12.7091 15.5302 12.7091V15.7091C16.0965 15.7091 16.6747 15.4959 17.1208 15.0498L14.9995 12.9285Z" fill="#8447FF" mask="url(#path-2-inside-1_3771_63746)"/>
</g>
</g>
</g>
</g>
</svg>
