<svg width="13" height="13" viewBox="0 0 13 13" fill="none" xmlns="http://www.w3.org/2000/svg">
<path d="M6.5 0.328125C3.02148 0.328125 0.203125 3.14648 0.203125 6.625C0.203125 10.1035 3.02148 12.9219 6.5 12.9219C9.97852 12.9219 12.7969 10.1035 12.7969 6.625C12.7969 3.14648 9.97852 0.328125 6.5 0.328125ZM8.83594 8.27539L8.32812 8.91016C8.25195 9.01172 8.125 9.08789 7.99805 9.08789C7.92188 9.08789 7.82031 9.03711 7.76953 8.98633L6.06836 7.7168C5.83984 7.56445 5.6875 7.20898 5.6875 6.92969V2.96875C5.6875 2.76562 5.86523 2.5625 6.09375 2.5625H6.90625C7.10938 2.5625 7.3125 2.76562 7.3125 2.96875V6.625L8.78516 7.7168C8.86133 7.79297 8.9375 7.91992 8.9375 8.02148C8.9375 8.12305 8.88672 8.22461 8.83594 8.27539Z" fill="#6B7280"/>
</svg>
