<svg width="18" height="11" viewBox="0 0 18 11" fill="none" xmlns="http://www.w3.org/2000/svg">
<path d="M17.2578 2.96094C17.8867 3.15234 17.8867 4 17.2578 4.19141L9.62891 6.54297C9.08203 6.70703 8.58984 6.625 8.34375 6.54297L3.01172 4.90234C2.65625 5.12109 2.46484 5.50391 2.4375 5.91406C2.68359 6.05078 2.875 6.32422 2.875 6.625C2.875 6.92578 2.71094 7.17188 2.49219 7.33594L3.17578 10.4805C3.23047 10.7539 3.03906 11 2.76562 11H1.20703C0.933594 11 0.742188 10.7539 0.796875 10.4805L1.48047 7.33594C1.26172 7.17188 1.125 6.92578 1.125 6.625C1.125 6.32422 1.28906 6.05078 1.5625 5.88672C1.58984 5.42188 1.75391 4.95703 2.05469 4.60156L0.714844 4.19141C0.0859375 4 0.0859375 3.15234 0.714844 2.96094L8.34375 0.609375C8.75391 0.472656 9.21875 0.472656 9.62891 0.609375L17.2578 2.96094ZM9.875 7.39062L13.8398 6.16016L14.25 9.25C14.25 10.2344 11.8984 11 9 11C6.07422 11 3.75 10.2344 3.75 9.25L4.13281 6.16016L8.09766 7.39062C8.42578 7.5 9.10938 7.60938 9.875 7.39062Z" fill="#6B7280"/>
</svg>
