<svg width="10" height="14" viewBox="0 0 10 14" fill="none" xmlns="http://www.w3.org/2000/svg">
<path d="M4.61719 12.8711C4.8457 13.2266 5.37891 13.2266 5.60742 12.8711C9.31445 7.53906 10 6.98047 10 5C10 2.30859 7.81641 0.125 5.125 0.125C2.4082 0.125 0.25 2.30859 0.25 5C0.25 6.98047 0.910156 7.53906 4.61719 12.8711ZM5.125 7.03125C3.98242 7.03125 3.09375 6.14258 3.09375 5C3.09375 3.88281 3.98242 2.96875 5.125 2.96875C6.24219 2.96875 7.15625 3.88281 7.15625 5C7.15625 6.14258 6.24219 7.03125 5.125 7.03125Z" fill="#6B7280"/>
</svg>
