<svg width="40" height="41" viewBox="0 0 40 41" fill="none" xmlns="http://www.w3.org/2000/svg">
<path d="M12.1722 26.0641C14.2209 26.0641 15.8818 27.725 15.8818 29.774C15.8818 31.8226 14.2209 33.4835 12.1722 33.4835C10.1233 33.4835 8.4624 31.8226 8.4624 29.774C8.4624 27.725 10.1233 26.0641 12.1722 26.0641Z" fill="#56369B"/>
<path d="M12.1722 16.7899C14.2209 16.7899 15.8818 18.4508 15.8818 20.4994C15.8818 22.5484 14.2209 24.2093 12.1722 24.2093C10.1233 24.2093 8.4624 22.5484 8.4624 20.4994C8.4624 18.4508 10.1233 16.7899 12.1722 16.7899Z" fill="#56369B"/>
<path d="M19.5914 21.4272C21.64 21.4272 23.3012 23.0881 23.3012 25.1364C23.3012 27.1857 21.64 28.8466 19.5914 28.8466C17.5431 28.8466 15.8815 27.1857 15.8815 25.1364C15.8815 23.0881 17.5431 21.4272 19.5914 21.4272Z" fill="#56369B"/>
<path d="M19.5914 12.1529C21.64 12.1529 23.3012 13.8138 23.3012 15.8624C23.3012 17.9111 21.64 19.5723 19.5914 19.5723C17.5431 19.5723 15.8815 17.9111 15.8815 15.8624C15.8815 13.8138 17.5431 12.1529 19.5914 12.1529Z" fill="#56369B"/>
<path d="M12.1722 7.51562C14.2209 7.51562 15.8818 9.1765 15.8818 11.2251C15.8818 13.2741 14.2209 14.935 12.1722 14.935C10.1233 14.935 8.4624 13.2741 8.4624 11.2251C8.4624 9.1765 10.1233 7.51562 12.1722 7.51562Z" fill="#56369B"/>
<path d="M27.8272 16.7905C29.8768 16.7905 31.537 18.4508 31.537 20.5C31.537 22.548 29.8768 24.2099 27.8272 24.2099C25.2881 24.2099 23.9709 21.6371 22.3738 20.5C23.9709 19.3614 25.2881 16.7905 27.8272 16.7905Z" fill="#56369B"/>
</svg>
