<svg width="24" height="27" viewBox="0 0 24 27" fill="none" xmlns="http://www.w3.org/2000/svg">
<g id="Group">
<g id="Vector">
<mask id="path-1-inside-1_5064_32750" fill="white">
<path d="M23.5556 17.0568C23.6734 17.0568 23.7865 17.01 23.8698 16.9266C23.9532 16.8433 24 16.7302 24 16.6124V6.83462C23.9992 6.24551 23.7649 5.68064 23.3484 5.26398C22.9318 4.84751 22.3669 4.61321 21.7778 4.6124H21.3107C21.1988 3.39854 20.6381 2.27016 19.7379 1.44812C18.8379 0.62608 17.6635 0.169549 16.4445 0.167974H15.5556C14.1004 0.165792 12.7214 0.81874 11.8008 1.94575H10.6667C10.4213 1.94575 10.2223 2.14475 10.2223 2.39019V3.72352C10.2221 4.51996 10.5784 5.27449 11.1933 5.78045C10.8629 6.03025 10.6681 6.42034 10.6667 6.83462V7.7235C10.6667 8.07707 10.8072 8.41637 11.0572 8.66633C11.3072 8.91628 11.6465 9.0568 12 9.0568H12.4444C12.445 10.0788 12.8867 11.0509 13.656 11.7235H12.8889C12.2998 11.7243 11.7349 11.9586 11.3183 12.375C10.9018 12.7917 10.6675 13.3566 10.6667 13.9457V17.5012C10.6667 17.7467 10.8657 17.9457 11.1111 17.9457C11.3566 17.9457 11.5556 17.7467 11.5556 17.5012V13.9457C11.5556 13.5921 11.696 13.2528 11.946 13.0028C12.196 12.7529 12.5353 12.6124 12.8889 12.6124H14.2222C14.2222 13.2475 14.5611 13.8344 15.1111 14.152C15.6611 14.4695 16.3389 14.4695 16.8888 14.152C17.4388 13.8344 17.7777 13.2474 17.7777 12.6124H19.1111C19.4646 12.6124 19.8039 12.7528 20.0539 13.0028C20.3038 13.2528 20.4444 13.5922 20.4444 13.9457V18.8345H19.111V16.1679C19.111 15.9225 18.912 15.7234 18.6666 15.7234C18.4212 15.7234 18.2222 15.9225 18.2222 16.1679V18.8345H13.7777V16.1679C13.7777 15.9225 13.5787 15.7234 13.3333 15.7234C13.0878 15.7234 12.8888 15.9225 12.8888 16.1679V18.8345H3.55554C3.31011 18.8345 3.1111 19.0336 3.1111 19.279C3.1111 19.5244 3.31011 19.7234 3.55554 19.7234H20.4444V20.6123H2.22221C1.86865 20.6123 1.52934 20.4718 1.27939 20.2218C1.02943 19.9718 0.888911 19.6325 0.888911 19.279V9.05683H7.99999V14.3901H2.22224C1.97681 14.3901 1.7778 14.5892 1.7778 14.8346C1.7778 15.08 1.97681 15.279 2.22224 15.279H8.44444C8.56229 15.279 8.67539 15.2322 8.75872 15.1489C8.84205 15.0655 8.88888 14.9524 8.88888 14.8346V8.61239C8.88888 8.49453 8.84205 8.38143 8.75872 8.2981C8.67539 8.21477 8.56229 8.16794 8.44444 8.16794H0.888911V6.83462C0.888911 6.48105 1.02939 6.14174 1.27939 5.89179C1.52939 5.64183 1.86869 5.50131 2.22221 5.50131C2.46765 5.50131 2.66666 5.3023 2.66666 5.05687C2.66666 4.81144 2.46765 4.61243 2.22221 4.61243C1.63311 4.61322 1.06824 4.84755 0.651579 5.26401C0.235113 5.68067 0.000812695 6.24554 0 6.83464V19.279C0.000793648 19.8681 0.235118 20.433 0.651579 20.8497C1.06824 21.2661 1.63311 21.5004 2.22221 21.5013H7.28094L5.94761 24.1679H3.55554C3.20197 24.1679 2.86267 24.3084 2.61271 24.5584C2.36276 24.8084 2.22224 25.1477 2.22224 25.5012V26.3901C2.22224 26.508 2.26906 26.621 2.3524 26.7044C2.43573 26.7877 2.54883 26.8345 2.66668 26.8345H21.3333C21.4511 26.8345 21.5642 26.7877 21.6476 26.7044C21.7309 26.621 21.7777 26.508 21.7777 26.3901V25.5012C21.7777 25.1476 21.6372 24.8083 21.3872 24.5584C21.1372 24.3084 20.7979 24.1679 20.4444 24.1679H18.0524L16.719 21.5013H21.7777C22.3668 21.5005 22.9317 21.2661 23.3484 20.8497C23.7648 20.433 23.9991 19.8681 24 19.279V18.3902C24 18.1447 23.801 17.9457 23.5555 17.9457C23.3101 17.9457 23.1111 18.1447 23.1111 18.3902V19.279C23.1111 19.6326 22.9706 19.9719 22.7206 20.2219C22.4706 20.4718 22.1313 20.6123 21.7778 20.6123H21.3333V13.9457C21.3325 13.3566 21.0982 12.7917 20.6817 12.3751C20.2651 11.9586 19.7002 11.7243 19.1111 11.7235H18.344C18.5752 11.5215 18.7793 11.2906 18.9516 11.0364L19.0254 11.0483C19.4976 11.1271 19.9815 11.012 20.3676 10.7291C20.754 10.4463 21.0097 10.0195 21.0774 9.54573L21.2938 8.03147C21.3093 7.9656 21.3333 7.7404 21.3333 7.72036V5.5013H21.7778C22.1313 5.5013 22.4707 5.64177 22.7206 5.89177C22.9706 6.14177 23.1111 6.48108 23.1111 6.8346V16.6123C23.1111 16.7302 23.1579 16.8433 23.2412 16.9266C23.3246 17.01 23.4377 17.0568 23.5555 17.0568L23.5556 17.0568ZM20.8889 25.5012V25.9457H3.11119V25.5012C3.11119 25.2558 3.3102 25.0568 3.55563 25.0568H20.4445C20.5623 25.0568 20.6754 25.1036 20.7587 25.1869C20.8421 25.2703 20.8889 25.3834 20.8889 25.5012ZM17.0588 24.1679H6.94122L8.27455 21.5012H15.7254L17.0588 24.1679ZM20 8.16794H19.5556V6.39017H20C20.1179 6.39017 20.231 6.437 20.3143 6.52033C20.3976 6.60366 20.4445 6.71676 20.4445 6.83462V7.69236L20.4294 7.79812C20.3956 8.00982 20.2143 8.16597 20 8.16795L20 8.16794ZM15.5556 1.05686H16.4445C17.505 1.05805 18.5217 1.47987 19.2716 2.22968C20.0215 2.9797 20.4432 3.99633 20.4445 5.05684V5.58301C20.3022 5.53043 20.1518 5.50266 20 5.50127H19.5556V4.61238C19.5548 3.90544 19.2736 3.22745 18.7738 2.72749C18.2738 2.22769 17.5959 1.94654 16.8889 1.94572H13.0494C13.757 1.36897 14.6427 1.05486 15.5556 1.05684V1.05686ZM11.1112 2.83463H16.8889C17.3603 2.83463 17.8125 3.02193 18.1461 3.35526C18.4794 3.68879 18.6667 4.14099 18.6667 4.6124V5.50129H12.8889C12.4175 5.50129 11.9653 5.31399 11.6318 4.98065C11.2985 4.64712 11.1112 4.19493 11.1112 3.72352V2.83463ZM12 8.16794C11.7546 8.16794 11.5556 7.96894 11.5556 7.7235V6.83462C11.5556 6.58918 11.7546 6.39017 12 6.39017H12.4445V8.16794H12ZM16 13.5013C15.7643 13.5013 15.5381 13.4076 15.3715 13.2409C15.2048 13.0743 15.1111 12.8481 15.1111 12.6124V12.4955C15.6935 12.6513 16.3066 12.6513 16.8889 12.4955V12.6124C16.8889 12.8481 16.7953 13.0743 16.6286 13.2409C16.4619 13.4076 16.2357 13.5013 16 13.5013ZM16 11.7235C15.2931 11.7227 14.6151 11.4415 14.1151 10.9417C13.6153 10.4417 13.3342 9.76377 13.3334 9.05683V6.39017H18.6667V9.05683C18.6665 9.39909 18.6 9.73797 18.4711 10.055L17.8488 9.95185C17.6099 9.91792 17.3875 10.0806 17.3478 10.3185C17.308 10.5566 17.4653 10.7828 17.7022 10.8284L17.948 10.8693C17.4461 11.4129 16.7399 11.7225 16 11.7234L16 11.7235ZM19.8427 10.0124C19.7052 10.1133 19.5411 10.1719 19.3706 10.1808C19.4927 9.81851 19.555 9.43897 19.5556 9.0568H20C20.0849 9.0564 20.1696 9.04787 20.253 9.0314L20.1974 9.42029C20.1643 9.65759 20.0363 9.87128 19.8427 10.0123L19.8427 10.0124Z"/>
</mask>
<path d="M23.5556 17.0568C23.6734 17.0568 23.7865 17.01 23.8698 16.9266C23.9532 16.8433 24 16.7302 24 16.6124V6.83462C23.9992 6.24551 23.7649 5.68064 23.3484 5.26398C22.9318 4.84751 22.3669 4.61321 21.7778 4.6124H21.3107C21.1988 3.39854 20.6381 2.27016 19.7379 1.44812C18.8379 0.62608 17.6635 0.169549 16.4445 0.167974H15.5556C14.1004 0.165792 12.7214 0.81874 11.8008 1.94575H10.6667C10.4213 1.94575 10.2223 2.14475 10.2223 2.39019V3.72352C10.2221 4.51996 10.5784 5.27449 11.1933 5.78045C10.8629 6.03025 10.6681 6.42034 10.6667 6.83462V7.7235C10.6667 8.07707 10.8072 8.41637 11.0572 8.66633C11.3072 8.91628 11.6465 9.0568 12 9.0568H12.4444C12.445 10.0788 12.8867 11.0509 13.656 11.7235H12.8889C12.2998 11.7243 11.7349 11.9586 11.3183 12.375C10.9018 12.7917 10.6675 13.3566 10.6667 13.9457V17.5012C10.6667 17.7467 10.8657 17.9457 11.1111 17.9457C11.3566 17.9457 11.5556 17.7467 11.5556 17.5012V13.9457C11.5556 13.5921 11.696 13.2528 11.946 13.0028C12.196 12.7529 12.5353 12.6124 12.8889 12.6124H14.2222C14.2222 13.2475 14.5611 13.8344 15.1111 14.152C15.6611 14.4695 16.3389 14.4695 16.8888 14.152C17.4388 13.8344 17.7777 13.2474 17.7777 12.6124H19.1111C19.4646 12.6124 19.8039 12.7528 20.0539 13.0028C20.3038 13.2528 20.4444 13.5922 20.4444 13.9457V18.8345H19.111V16.1679C19.111 15.9225 18.912 15.7234 18.6666 15.7234C18.4212 15.7234 18.2222 15.9225 18.2222 16.1679V18.8345H13.7777V16.1679C13.7777 15.9225 13.5787 15.7234 13.3333 15.7234C13.0878 15.7234 12.8888 15.9225 12.8888 16.1679V18.8345H3.55554C3.31011 18.8345 3.1111 19.0336 3.1111 19.279C3.1111 19.5244 3.31011 19.7234 3.55554 19.7234H20.4444V20.6123H2.22221C1.86865 20.6123 1.52934 20.4718 1.27939 20.2218C1.02943 19.9718 0.888911 19.6325 0.888911 19.279V9.05683H7.99999V14.3901H2.22224C1.97681 14.3901 1.7778 14.5892 1.7778 14.8346C1.7778 15.08 1.97681 15.279 2.22224 15.279H8.44444C8.56229 15.279 8.67539 15.2322 8.75872 15.1489C8.84205 15.0655 8.88888 14.9524 8.88888 14.8346V8.61239C8.88888 8.49453 8.84205 8.38143 8.75872 8.2981C8.67539 8.21477 8.56229 8.16794 8.44444 8.16794H0.888911V6.83462C0.888911 6.48105 1.02939 6.14174 1.27939 5.89179C1.52939 5.64183 1.86869 5.50131 2.22221 5.50131C2.46765 5.50131 2.66666 5.3023 2.66666 5.05687C2.66666 4.81144 2.46765 4.61243 2.22221 4.61243C1.63311 4.61322 1.06824 4.84755 0.651579 5.26401C0.235113 5.68067 0.000812695 6.24554 0 6.83464V19.279C0.000793648 19.8681 0.235118 20.433 0.651579 20.8497C1.06824 21.2661 1.63311 21.5004 2.22221 21.5013H7.28094L5.94761 24.1679H3.55554C3.20197 24.1679 2.86267 24.3084 2.61271 24.5584C2.36276 24.8084 2.22224 25.1477 2.22224 25.5012V26.3901C2.22224 26.508 2.26906 26.621 2.3524 26.7044C2.43573 26.7877 2.54883 26.8345 2.66668 26.8345H21.3333C21.4511 26.8345 21.5642 26.7877 21.6476 26.7044C21.7309 26.621 21.7777 26.508 21.7777 26.3901V25.5012C21.7777 25.1476 21.6372 24.8083 21.3872 24.5584C21.1372 24.3084 20.7979 24.1679 20.4444 24.1679H18.0524L16.719 21.5013H21.7777C22.3668 21.5005 22.9317 21.2661 23.3484 20.8497C23.7648 20.433 23.9991 19.8681 24 19.279V18.3902C24 18.1447 23.801 17.9457 23.5555 17.9457C23.3101 17.9457 23.1111 18.1447 23.1111 18.3902V19.279C23.1111 19.6326 22.9706 19.9719 22.7206 20.2219C22.4706 20.4718 22.1313 20.6123 21.7778 20.6123H21.3333V13.9457C21.3325 13.3566 21.0982 12.7917 20.6817 12.3751C20.2651 11.9586 19.7002 11.7243 19.1111 11.7235H18.344C18.5752 11.5215 18.7793 11.2906 18.9516 11.0364L19.0254 11.0483C19.4976 11.1271 19.9815 11.012 20.3676 10.7291C20.754 10.4463 21.0097 10.0195 21.0774 9.54573L21.2938 8.03147C21.3093 7.9656 21.3333 7.7404 21.3333 7.72036V5.5013H21.7778C22.1313 5.5013 22.4707 5.64177 22.7206 5.89177C22.9706 6.14177 23.1111 6.48108 23.1111 6.8346V16.6123C23.1111 16.7302 23.1579 16.8433 23.2412 16.9266C23.3246 17.01 23.4377 17.0568 23.5555 17.0568L23.5556 17.0568ZM20.8889 25.5012V25.9457H3.11119V25.5012C3.11119 25.2558 3.3102 25.0568 3.55563 25.0568H20.4445C20.5623 25.0568 20.6754 25.1036 20.7587 25.1869C20.8421 25.2703 20.8889 25.3834 20.8889 25.5012ZM17.0588 24.1679H6.94122L8.27455 21.5012H15.7254L17.0588 24.1679ZM20 8.16794H19.5556V6.39017H20C20.1179 6.39017 20.231 6.437 20.3143 6.52033C20.3976 6.60366 20.4445 6.71676 20.4445 6.83462V7.69236L20.4294 7.79812C20.3956 8.00982 20.2143 8.16597 20 8.16795L20 8.16794ZM15.5556 1.05686H16.4445C17.505 1.05805 18.5217 1.47987 19.2716 2.22968C20.0215 2.9797 20.4432 3.99633 20.4445 5.05684V5.58301C20.3022 5.53043 20.1518 5.50266 20 5.50127H19.5556V4.61238C19.5548 3.90544 19.2736 3.22745 18.7738 2.72749C18.2738 2.22769 17.5959 1.94654 16.8889 1.94572H13.0494C13.757 1.36897 14.6427 1.05486 15.5556 1.05684V1.05686ZM11.1112 2.83463H16.8889C17.3603 2.83463 17.8125 3.02193 18.1461 3.35526C18.4794 3.68879 18.6667 4.14099 18.6667 4.6124V5.50129H12.8889C12.4175 5.50129 11.9653 5.31399 11.6318 4.98065C11.2985 4.64712 11.1112 4.19493 11.1112 3.72352V2.83463ZM12 8.16794C11.7546 8.16794 11.5556 7.96894 11.5556 7.7235V6.83462C11.5556 6.58918 11.7546 6.39017 12 6.39017H12.4445V8.16794H12ZM16 13.5013C15.7643 13.5013 15.5381 13.4076 15.3715 13.2409C15.2048 13.0743 15.1111 12.8481 15.1111 12.6124V12.4955C15.6935 12.6513 16.3066 12.6513 16.8889 12.4955V12.6124C16.8889 12.8481 16.7953 13.0743 16.6286 13.2409C16.4619 13.4076 16.2357 13.5013 16 13.5013ZM16 11.7235C15.2931 11.7227 14.6151 11.4415 14.1151 10.9417C13.6153 10.4417 13.3342 9.76377 13.3334 9.05683V6.39017H18.6667V9.05683C18.6665 9.39909 18.6 9.73797 18.4711 10.055L17.8488 9.95185C17.6099 9.91792 17.3875 10.0806 17.3478 10.3185C17.308 10.5566 17.4653 10.7828 17.7022 10.8284L17.948 10.8693C17.4461 11.4129 16.7399 11.7225 16 11.7234L16 11.7235ZM19.8427 10.0124C19.7052 10.1133 19.5411 10.1719 19.3706 10.1808C19.4927 9.81851 19.555 9.43897 19.5556 9.0568H20C20.0849 9.0564 20.1696 9.04787 20.253 9.0314L20.1974 9.42029C20.1643 9.65759 20.0363 9.87128 19.8427 10.0123L19.8427 10.0124Z" fill="url(#paint0_linear_5064_32750)" stroke="url(#paint1_linear_5064_32750)" stroke-width="2" mask="url(#path-1-inside-1_5064_32750)"/>
</g>
<g id="Vector_2">
<mask id="path-2-inside-2_5064_32750" fill="white">
<path d="M3.11241 13.5011C3.18126 13.5011 3.24931 13.4852 3.31102 13.4545L5.97767 12.1212C6.12867 12.046 6.22391 11.8918 6.22391 11.7233C6.22391 11.5549 6.12867 11.4007 5.97767 11.3255L3.31102 9.9922C3.17332 9.92335 3.00963 9.93069 2.87868 10.0118C2.74753 10.0928 2.66797 10.236 2.66797 10.39V13.0567C2.66797 13.1745 2.71479 13.2876 2.79813 13.371C2.88146 13.4543 2.99456 13.5011 3.11241 13.5011L3.11241 13.5011ZM3.55685 11.109L4.78524 11.7233L3.55685 12.3376V11.109Z"/>
</mask>
<path d="M3.11241 13.5011C3.18126 13.5011 3.24931 13.4852 3.31102 13.4545L5.97767 12.1212C6.12867 12.046 6.22391 11.8918 6.22391 11.7233C6.22391 11.5549 6.12867 11.4007 5.97767 11.3255L3.31102 9.9922C3.17332 9.92335 3.00963 9.93069 2.87868 10.0118C2.74753 10.0928 2.66797 10.236 2.66797 10.39V13.0567C2.66797 13.1745 2.71479 13.2876 2.79813 13.371C2.88146 13.4543 2.99456 13.5011 3.11241 13.5011L3.11241 13.5011ZM3.55685 11.109L4.78524 11.7233L3.55685 12.3376V11.109Z" fill="url(#paint2_linear_5064_32750)"/>
<path d="M3.11241 13.5011V12.5011H-0.653158L2.61627 14.3694L3.11241 13.5011ZM3.31102 13.4545L3.75707 14.3495L3.75823 14.3489L3.31102 13.4545ZM5.97767 12.1212L5.53187 11.226L5.53046 11.2267L5.97767 12.1212ZM5.97767 11.3255L5.53046 12.22L5.5319 12.2207L5.97767 11.3255ZM3.31102 9.9922L2.86379 10.8866L2.86381 10.8866L3.31102 9.9922ZM2.87868 10.0118L3.40394 10.8628L3.40543 10.8619L2.87868 10.0118ZM3.11241 13.5011V14.5011H6.87798L3.60855 12.6329L3.11241 13.5011ZM3.55685 11.109L4.00412 10.2146L2.55685 9.49089V11.109H3.55685ZM4.78524 11.7233L5.23251 12.6177L7.02101 11.7233L5.23251 10.8289L4.78524 11.7233ZM3.55685 12.3376H2.55685V13.9558L4.00412 13.232L3.55685 12.3376ZM3.11241 14.5011C3.33475 14.5011 3.55564 14.4499 3.75707 14.3495L2.86497 12.5595C2.94298 12.5206 3.02776 12.5011 3.11241 12.5011V14.5011ZM3.75823 14.3489L6.42489 13.0156L5.53046 11.2267L2.86381 12.5601L3.75823 14.3489ZM6.42348 13.0163C6.91453 12.7717 7.22391 12.2706 7.22391 11.7233H5.22391C5.22391 11.513 5.3428 11.3202 5.53187 11.226L6.42348 13.0163ZM7.22391 11.7233C7.22391 11.1761 6.91455 10.6749 6.42345 10.4304L5.5319 12.2207C5.34279 12.1265 5.22391 11.9336 5.22391 11.7233H7.22391ZM6.42489 10.4311L3.75823 9.09777L2.86381 10.8866L5.53046 12.22L6.42489 10.4311ZM3.75825 9.09778C3.3106 8.87394 2.77824 8.89764 2.35193 9.16182L3.40543 10.8619C3.24102 10.9637 3.03605 10.9727 2.86379 10.8866L3.75825 9.09778ZM2.35342 9.1609C1.92599 9.42474 1.66797 9.89068 1.66797 10.39H3.66797C3.66797 10.5814 3.56907 10.7608 3.40394 10.8628L2.35342 9.1609ZM1.66797 10.39V13.0567H3.66797V10.39H1.66797ZM1.66797 13.0567C1.66797 13.4396 1.82006 13.8071 2.09102 14.0781L3.50523 12.6638C3.60953 12.7681 3.66797 12.9094 3.66797 13.0567H1.66797ZM2.09102 14.0781C2.36198 14.349 2.72946 14.5011 3.11241 14.5011V12.5011C3.25965 12.5011 3.40094 12.5596 3.50523 12.6638L2.09102 14.0781ZM3.60855 12.6329L3.60855 12.6329L2.61627 14.3694L2.61627 14.3694L3.60855 12.6329ZM3.10958 12.0034L4.33797 12.6177L5.23251 10.8289L4.00412 10.2146L3.10958 12.0034ZM4.33797 10.8289L3.10958 11.4432L4.00412 13.232L5.23251 12.6177L4.33797 10.8289ZM4.55685 12.3376V11.109H2.55685V12.3376H4.55685Z" fill="url(#paint3_linear_5064_32750)" mask="url(#path-2-inside-2_5064_32750)"/>
</g>
<path id="Vector_3" d="M7.98747 5.48747C7.9875 5.48743 7.98754 5.4874 7.98757 5.48736C7.98754 5.4874 7.9875 5.48743 7.98747 5.48747Z" fill="url(#paint4_linear_5064_32750)" stroke="url(#paint5_linear_5064_32750)"/>
<path id="Vector_4" d="M8.88757 2.83594C9.13301 2.83594 9.33202 3.03495 9.33202 3.28038C9.33202 3.52581 9.13301 3.72482 8.88757 3.72482C8.18063 3.72564 7.50268 4.00679 7.00268 4.50658C6.50286 5.00654 6.22171 5.68454 6.22092 6.39148C6.22092 6.63691 6.02191 6.83592 5.77647 6.83592C5.53104 6.83592 5.33203 6.63691 5.33203 6.39148M8.88757 2.83594C7.9449 2.83693 7.04113 3.21193 6.37467 3.87857C5.708 4.54504 5.333 5.4488 5.33203 6.39148M8.88757 2.83594V3.22482V3.28038V3.33594M8.88757 2.83594L8.88804 3.28038L8.8881 3.33594C8.88792 3.33594 8.88775 3.33594 8.88757 3.33594M5.33203 6.39148H5.72092M5.33203 6.39148L5.77647 6.39193L5.83203 6.39199C5.83203 6.39182 5.83203 6.39165 5.83203 6.39148M5.72092 6.39148H5.77647H5.83203M5.72092 6.39148V6.39092V6.39148ZM5.83203 6.39148C5.83203 6.39133 5.83203 6.39119 5.83203 6.39104C5.83203 6.39119 5.83203 6.39133 5.83203 6.39148ZM8.88757 3.33594C8.88742 3.33594 8.88727 3.33594 8.88713 3.33594C8.88727 3.33594 8.88742 3.33594 8.88757 3.33594Z" fill="url(#paint6_linear_5064_32750)" stroke="url(#paint7_linear_5064_32750)"/>
<path id="Vector_5" d="M8.888 1.05469C9.13343 1.05469 9.33244 1.2537 9.33244 1.49913C9.33244 1.74456 9.13343 1.94357 8.888 1.94357C7.70964 1.94494 6.57985 2.41356 5.74673 3.24673C4.91361 4.07989 4.44496 5.20964 4.44357 6.388H3.55469C3.55626 4.97391 4.11855 3.61839 5.11836 2.61836C6.11839 1.6186 7.47391 1.05627 8.888 1.05469ZM8.888 1.05469L8.8885 1.49913L8.88856 1.55469C8.88837 1.55469 8.88819 1.55469 8.888 1.55469M8.888 1.05469V1.44357V1.49913V1.55469M8.888 1.55469C8.88785 1.55469 8.8877 1.55469 8.88755 1.55469C8.8877 1.55469 8.88785 1.55469 8.888 1.55469ZM5.47191 2.97192C5.47192 2.97191 5.47194 2.9719 5.47195 2.97188C5.47194 2.9719 5.47192 2.97191 5.47191 2.97192Z" fill="url(#paint8_linear_5064_32750)" stroke="url(#paint9_linear_5064_32750)"/>
<path id="Vector_6" d="M14.1662 7.72179C14.1662 7.69108 14.1911 7.66623 14.2218 7.66623C14.2525 7.66623 14.2773 7.69108 14.2773 7.72179C14.2773 7.75249 14.2525 7.77734 14.2218 7.77734C14.1911 7.77734 14.1662 7.75249 14.1662 7.72179Z" fill="url(#paint10_linear_5064_32750)" stroke="url(#paint11_linear_5064_32750)"/>
<path id="Vector_7" d="M16.8342 7.72179C16.8342 7.69108 16.859 7.66623 16.8898 7.66623C16.9205 7.66623 16.9453 7.69108 16.9453 7.72179C16.9453 7.75249 16.9205 7.77734 16.8898 7.77734C16.859 7.77734 16.8342 7.75249 16.8342 7.72179Z" fill="url(#paint12_linear_5064_32750)" stroke="url(#paint13_linear_5064_32750)"/>
<path id="Vector_8" d="M15.4431 9.00183C15.423 9.00122 15.4028 9.0008 15.3827 9.00057L15.4431 8.61426V9.00183Z" fill="url(#paint14_linear_5064_32750)" stroke="url(#paint15_linear_5064_32750)"/>
</g>
<defs>
<linearGradient id="paint0_linear_5064_32750" x1="0" y1="13.5013" x2="24" y2="13.5013" gradientUnits="userSpaceOnUse">
<stop stop-color="#8447FF"/>
<stop offset="1" stop-color="#AE47FF"/>
</linearGradient>
<linearGradient id="paint1_linear_5064_32750" x1="0" y1="13.5013" x2="24" y2="13.5013" gradientUnits="userSpaceOnUse">
<stop stop-color="#8447FF"/>
<stop offset="1" stop-color="#AE47FF"/>
</linearGradient>
<linearGradient id="paint2_linear_5064_32750" x1="2.66797" y1="11.7232" x2="6.22391" y2="11.7232" gradientUnits="userSpaceOnUse">
<stop stop-color="#8447FF"/>
<stop offset="1" stop-color="#AE47FF"/>
</linearGradient>
<linearGradient id="paint3_linear_5064_32750" x1="2.66797" y1="11.7232" x2="6.22391" y2="11.7232" gradientUnits="userSpaceOnUse">
<stop stop-color="#8447FF"/>
<stop offset="1" stop-color="#AE47FF"/>
</linearGradient>
<linearGradient id="paint4_linear_5064_32750" x1="7.11328" y1="5.72439" x2="9.33549" y2="5.72439" gradientUnits="userSpaceOnUse">
<stop stop-color="#8447FF"/>
<stop offset="1" stop-color="#AE47FF"/>
</linearGradient>
<linearGradient id="paint5_linear_5064_32750" x1="7.11328" y1="5.72439" x2="9.33549" y2="5.72439" gradientUnits="userSpaceOnUse">
<stop stop-color="#8447FF"/>
<stop offset="1" stop-color="#AE47FF"/>
</linearGradient>
<linearGradient id="paint6_linear_5064_32750" x1="5.33203" y1="4.83593" x2="9.33202" y2="4.83593" gradientUnits="userSpaceOnUse">
<stop stop-color="#8447FF"/>
<stop offset="1" stop-color="#AE47FF"/>
</linearGradient>
<linearGradient id="paint7_linear_5064_32750" x1="5.33203" y1="4.83593" x2="9.33202" y2="4.83593" gradientUnits="userSpaceOnUse">
<stop stop-color="#8447FF"/>
<stop offset="1" stop-color="#AE47FF"/>
</linearGradient>
<linearGradient id="paint8_linear_5064_32750" x1="3.55469" y1="3.94357" x2="9.33244" y2="3.94357" gradientUnits="userSpaceOnUse">
<stop stop-color="#8447FF"/>
<stop offset="1" stop-color="#AE47FF"/>
</linearGradient>
<linearGradient id="paint9_linear_5064_32750" x1="3.55469" y1="3.94357" x2="9.33244" y2="3.94357" gradientUnits="userSpaceOnUse">
<stop stop-color="#8447FF"/>
<stop offset="1" stop-color="#AE47FF"/>
</linearGradient>
<linearGradient id="paint10_linear_5064_32750" x1="13.7773" y1="7.72179" x2="14.6662" y2="7.72179" gradientUnits="userSpaceOnUse">
<stop stop-color="#8447FF"/>
<stop offset="1" stop-color="#AE47FF"/>
</linearGradient>
<linearGradient id="paint11_linear_5064_32750" x1="13.7773" y1="7.72179" x2="14.6662" y2="7.72179" gradientUnits="userSpaceOnUse">
<stop stop-color="#8447FF"/>
<stop offset="1" stop-color="#AE47FF"/>
</linearGradient>
<linearGradient id="paint12_linear_5064_32750" x1="16.4453" y1="7.72179" x2="17.3342" y2="7.72179" gradientUnits="userSpaceOnUse">
<stop stop-color="#8447FF"/>
<stop offset="1" stop-color="#AE47FF"/>
</linearGradient>
<linearGradient id="paint13_linear_5064_32750" x1="16.4453" y1="7.72179" x2="17.3342" y2="7.72179" gradientUnits="userSpaceOnUse">
<stop stop-color="#8447FF"/>
<stop offset="1" stop-color="#AE47FF"/>
</linearGradient>
<linearGradient id="paint14_linear_5064_32750" x1="14.2227" y1="9.93865" x2="16.8913" y2="9.93865" gradientUnits="userSpaceOnUse">
<stop stop-color="#8447FF"/>
<stop offset="1" stop-color="#AE47FF"/>
</linearGradient>
<linearGradient id="paint15_linear_5064_32750" x1="14.2227" y1="9.93865" x2="16.8913" y2="9.93865" gradientUnits="userSpaceOnUse">
<stop stop-color="#8447FF"/>
<stop offset="1" stop-color="#AE47FF"/>
</linearGradient>
</defs>
</svg>
