<svg width="24" height="25" viewBox="0 0 24 25" fill="none" xmlns="http://www.w3.org/2000/svg">
<g id="file-02">
<path id="Icon" d="M14 11.5H8M10 15.5H8M16 7.5H8M20 7.3V17.7C20 19.3802 20 20.2202 19.673 20.862C19.3854 21.4265 18.9265 21.8854 18.362 22.173C17.7202 22.5 16.8802 22.5 15.2 22.5H8.8C7.11984 22.5 6.27976 22.5 5.63803 22.173C5.07354 21.8854 4.6146 21.4265 4.32698 20.862C4 20.2202 4 19.3802 4 17.7V7.3C4 5.61984 4 4.77976 4.32698 4.13803C4.6146 3.57354 5.07354 3.1146 5.63803 2.82698C6.27976 2.5 7.11984 2.5 8.8 2.5H15.2C16.8802 2.5 17.7202 2.5 18.362 2.82698C18.9265 3.1146 19.3854 3.57354 19.673 4.13803C20 4.77976 20 5.61984 20 7.3Z" stroke="url(#paint0_linear_5064_32745)" stroke-width="1.2" stroke-linecap="round" stroke-linejoin="round"/>
</g>
<defs>
<linearGradient id="paint0_linear_5064_32745" x1="4" y1="12.5" x2="20" y2="12.5" gradientUnits="userSpaceOnUse">
<stop stop-color="#8447FF"/>
<stop offset="1" stop-color="#AE47FF"/>
</linearGradient>
</defs>
</svg>
