<svg width="24" height="23" viewBox="0 0 24 23" fill="none" xmlns="http://www.w3.org/2000/svg">
<g id="Group">
<g id="Vector">
<mask id="path-1-inside-1_5064_32763" fill="white">
<path d="M22.1999 0.101562H5.40003C4.9227 0.101981 4.46527 0.291783 4.12772 0.629323C3.79016 0.966864 3.60037 1.42432 3.59995 1.90164V3.70173L1.80007 3.70152C1.32275 3.70215 0.865098 3.89195 0.527761 4.22928C0.19022 4.56682 0.000417854 5.02428 0 5.5016V21.1015C0.000418497 21.5788 0.19022 22.0363 0.527761 22.3738C0.865093 22.7113 1.32276 22.9012 1.80007 22.9016H18.6C19.0773 22.9012 19.5347 22.7113 19.8723 22.3738C20.2098 22.0363 20.3996 21.5788 20.4 21.1015V19.3016H22.2001H22.1999C22.6773 19.301 23.1349 19.1112 23.4722 18.7739C23.8098 18.4363 23.9996 17.9789 24 17.5015V1.90164C23.9996 1.42431 23.8098 0.96688 23.4722 0.629329C23.1349 0.291788 22.6772 0.101986 22.1999 0.101568L22.1999 0.101562ZM19.1999 21.1014C19.1999 21.2607 19.1367 21.4132 19.0244 21.5258C18.9118 21.6382 18.7592 21.7014 18.6 21.7014H1.8001C1.46862 21.7014 1.19994 21.4329 1.19994 21.1014V9.70151H9.59988C9.93136 9.70151 10.1998 9.43303 10.1998 9.10157C10.1998 8.77031 9.93134 8.50163 9.59988 8.50163H1.19994V5.50165C1.19994 5.17018 1.46863 4.9017 1.8001 4.9017H7.20006C7.53153 4.9017 7.80022 4.63301 7.80022 4.30176C7.80022 3.97029 7.53153 3.7016 7.20006 3.7016H4.80024V1.90172C4.80024 1.57025 5.06872 1.30178 5.40018 1.30178H22.2001C22.3593 1.30178 22.5119 1.36498 22.6245 1.47735C22.737 1.58993 22.8002 1.74248 22.8002 1.90173V4.90171H20.2895C20.1663 4.55162 19.9377 4.24841 19.6351 4.0337C19.3328 3.81879 18.9711 3.70286 18.6002 3.7016H10.8002C10.4687 3.7016 10.2 3.97029 10.2 4.30176C10.2 4.63302 10.4687 4.9017 10.8002 4.9017H18.6002C18.7594 4.9017 18.912 4.9649 19.0245 5.07748C19.1369 5.18986 19.2001 5.34261 19.2001 5.50166V8.50164H13.2001C12.8689 8.50164 12.6002 8.77033 12.6002 9.10158C12.6002 9.43305 12.8689 9.70152 13.2001 9.70152H19.2001L19.1999 21.1014ZM22.8001 17.5015C22.8001 17.6605 22.7369 17.8133 22.6243 17.9257C22.5117 18.0383 22.3592 18.1015 22.1999 18.1015H20.4V6.10153H22.8001L22.8001 17.5015ZM12.9328 15.2023L9.3329 12.8023C9.14875 12.6797 8.91207 12.6682 8.71704 12.7726C8.52201 12.877 8.40022 13.0802 8.40022 13.3016V18.1015C8.40022 18.3227 8.52201 18.5261 8.71704 18.6305C8.91207 18.7347 9.14875 18.7234 9.3329 18.6008L12.9328 16.2007C13.0998 16.0894 13.2 15.9021 13.2 15.7014C13.2 15.501 13.0998 15.3137 12.9328 15.2023V15.2023ZM9.60011 16.9804V14.4226L11.5201 15.7014L9.60011 16.9804ZM10.2001 6.7012C10.2001 6.36994 10.4687 6.10126 10.8002 6.10126H17.4002C17.7314 6.10126 18.0001 6.36995 18.0001 6.7012C18.0001 7.03267 17.7314 7.30136 17.4002 7.30136H10.8002C10.4687 7.30136 10.2001 7.03266 10.2001 6.7012ZM3.60009 6.7012C3.60009 6.94394 3.45403 7.16283 3.2297 7.25555C3.00558 7.34847 2.74756 7.2972 2.57597 7.1256C2.40438 6.95401 2.3529 6.69599 2.44581 6.47166C2.53872 6.24754 2.7574 6.10126 3.00016 6.10126C3.1592 6.10126 3.31196 6.16446 3.42434 6.27704C3.53692 6.38962 3.60012 6.54217 3.60012 6.70121L3.60009 6.7012ZM5.40019 6.7012C5.40019 6.94394 5.25391 7.16283 5.02979 7.25555C4.80547 7.34847 4.54745 7.2972 4.37585 7.1256C4.20426 6.95401 4.15299 6.69599 4.2459 6.47166C4.3386 6.24754 4.55749 6.10126 4.80025 6.10126C4.95929 6.10126 5.11184 6.16446 5.22443 6.27704C5.33701 6.38962 5.40021 6.54217 5.40021 6.70121L5.40019 6.7012ZM7.20028 6.7012H7.20008C7.20008 6.94394 7.05401 7.16283 6.82968 7.25555C6.60556 7.34847 6.34754 7.2972 6.17595 7.1256C6.00436 6.95401 5.95288 6.69599 6.04579 6.47166C6.1387 6.24754 6.35759 6.10126 6.60014 6.10126C6.7594 6.10126 6.91194 6.16446 7.02453 6.27704C7.13691 6.38962 7.2001 6.54217 7.2001 6.70121L7.20028 6.7012ZM11.4002 8.50129C11.6427 8.50129 11.8616 8.64757 11.9545 8.87169C12.0474 9.09581 11.9959 9.35404 11.8243 9.52563C11.6527 9.69723 11.3947 9.7485 11.1706 9.65558C10.9463 9.56267 10.8002 9.34399 10.8002 9.10123C10.8002 8.76997 11.0687 8.50129 11.4002 8.50129L11.4002 8.50129ZM9.60005 4.30143C9.60005 4.54396 9.45399 4.76285 9.22966 4.85578C9.00554 4.94849 8.74752 4.89722 8.57593 4.72562C8.40434 4.55402 8.35286 4.29601 8.44577 4.07168C8.53868 3.84756 8.75736 3.70128 9.00012 3.70128C9.15917 3.70128 9.31192 3.76448 9.4243 3.87706C9.53688 3.98964 9.60008 4.14219 9.60008 4.30144L9.60005 4.30143Z"/>
</mask>
<path d="M22.1999 0.101562H5.40003C4.9227 0.101981 4.46527 0.291783 4.12772 0.629323C3.79016 0.966864 3.60037 1.42432 3.59995 1.90164V3.70173L1.80007 3.70152C1.32275 3.70215 0.865098 3.89195 0.527761 4.22928C0.19022 4.56682 0.000417854 5.02428 0 5.5016V21.1015C0.000418497 21.5788 0.19022 22.0363 0.527761 22.3738C0.865093 22.7113 1.32276 22.9012 1.80007 22.9016H18.6C19.0773 22.9012 19.5347 22.7113 19.8723 22.3738C20.2098 22.0363 20.3996 21.5788 20.4 21.1015V19.3016H22.2001H22.1999C22.6773 19.301 23.1349 19.1112 23.4722 18.7739C23.8098 18.4363 23.9996 17.9789 24 17.5015V1.90164C23.9996 1.42431 23.8098 0.96688 23.4722 0.629329C23.1349 0.291788 22.6772 0.101986 22.1999 0.101568L22.1999 0.101562ZM19.1999 21.1014C19.1999 21.2607 19.1367 21.4132 19.0244 21.5258C18.9118 21.6382 18.7592 21.7014 18.6 21.7014H1.8001C1.46862 21.7014 1.19994 21.4329 1.19994 21.1014V9.70151H9.59988C9.93136 9.70151 10.1998 9.43303 10.1998 9.10157C10.1998 8.77031 9.93134 8.50163 9.59988 8.50163H1.19994V5.50165C1.19994 5.17018 1.46863 4.9017 1.8001 4.9017H7.20006C7.53153 4.9017 7.80022 4.63301 7.80022 4.30176C7.80022 3.97029 7.53153 3.7016 7.20006 3.7016H4.80024V1.90172C4.80024 1.57025 5.06872 1.30178 5.40018 1.30178H22.2001C22.3593 1.30178 22.5119 1.36498 22.6245 1.47735C22.737 1.58993 22.8002 1.74248 22.8002 1.90173V4.90171H20.2895C20.1663 4.55162 19.9377 4.24841 19.6351 4.0337C19.3328 3.81879 18.9711 3.70286 18.6002 3.7016H10.8002C10.4687 3.7016 10.2 3.97029 10.2 4.30176C10.2 4.63302 10.4687 4.9017 10.8002 4.9017H18.6002C18.7594 4.9017 18.912 4.9649 19.0245 5.07748C19.1369 5.18986 19.2001 5.34261 19.2001 5.50166V8.50164H13.2001C12.8689 8.50164 12.6002 8.77033 12.6002 9.10158C12.6002 9.43305 12.8689 9.70152 13.2001 9.70152H19.2001L19.1999 21.1014ZM22.8001 17.5015C22.8001 17.6605 22.7369 17.8133 22.6243 17.9257C22.5117 18.0383 22.3592 18.1015 22.1999 18.1015H20.4V6.10153H22.8001L22.8001 17.5015ZM12.9328 15.2023L9.3329 12.8023C9.14875 12.6797 8.91207 12.6682 8.71704 12.7726C8.52201 12.877 8.40022 13.0802 8.40022 13.3016V18.1015C8.40022 18.3227 8.52201 18.5261 8.71704 18.6305C8.91207 18.7347 9.14875 18.7234 9.3329 18.6008L12.9328 16.2007C13.0998 16.0894 13.2 15.9021 13.2 15.7014C13.2 15.501 13.0998 15.3137 12.9328 15.2023V15.2023ZM9.60011 16.9804V14.4226L11.5201 15.7014L9.60011 16.9804ZM10.2001 6.7012C10.2001 6.36994 10.4687 6.10126 10.8002 6.10126H17.4002C17.7314 6.10126 18.0001 6.36995 18.0001 6.7012C18.0001 7.03267 17.7314 7.30136 17.4002 7.30136H10.8002C10.4687 7.30136 10.2001 7.03266 10.2001 6.7012ZM3.60009 6.7012C3.60009 6.94394 3.45403 7.16283 3.2297 7.25555C3.00558 7.34847 2.74756 7.2972 2.57597 7.1256C2.40438 6.95401 2.3529 6.69599 2.44581 6.47166C2.53872 6.24754 2.7574 6.10126 3.00016 6.10126C3.1592 6.10126 3.31196 6.16446 3.42434 6.27704C3.53692 6.38962 3.60012 6.54217 3.60012 6.70121L3.60009 6.7012ZM5.40019 6.7012C5.40019 6.94394 5.25391 7.16283 5.02979 7.25555C4.80547 7.34847 4.54745 7.2972 4.37585 7.1256C4.20426 6.95401 4.15299 6.69599 4.2459 6.47166C4.3386 6.24754 4.55749 6.10126 4.80025 6.10126C4.95929 6.10126 5.11184 6.16446 5.22443 6.27704C5.33701 6.38962 5.40021 6.54217 5.40021 6.70121L5.40019 6.7012ZM7.20028 6.7012H7.20008C7.20008 6.94394 7.05401 7.16283 6.82968 7.25555C6.60556 7.34847 6.34754 7.2972 6.17595 7.1256C6.00436 6.95401 5.95288 6.69599 6.04579 6.47166C6.1387 6.24754 6.35759 6.10126 6.60014 6.10126C6.7594 6.10126 6.91194 6.16446 7.02453 6.27704C7.13691 6.38962 7.2001 6.54217 7.2001 6.70121L7.20028 6.7012ZM11.4002 8.50129C11.6427 8.50129 11.8616 8.64757 11.9545 8.87169C12.0474 9.09581 11.9959 9.35404 11.8243 9.52563C11.6527 9.69723 11.3947 9.7485 11.1706 9.65558C10.9463 9.56267 10.8002 9.34399 10.8002 9.10123C10.8002 8.76997 11.0687 8.50129 11.4002 8.50129L11.4002 8.50129ZM9.60005 4.30143C9.60005 4.54396 9.45399 4.76285 9.22966 4.85578C9.00554 4.94849 8.74752 4.89722 8.57593 4.72562C8.40434 4.55402 8.35286 4.29601 8.44577 4.07168C8.53868 3.84756 8.75736 3.70128 9.00012 3.70128C9.15917 3.70128 9.31192 3.76448 9.4243 3.87706C9.53688 3.98964 9.60008 4.14219 9.60008 4.30144L9.60005 4.30143Z" fill="url(#paint0_linear_5064_32763)" stroke="url(#paint1_linear_5064_32763)" stroke-width="4" mask="url(#path-1-inside-1_5064_32763)"/>
</g>
</g>
<defs>
<linearGradient id="paint0_linear_5064_32763" x1="0" y1="11.5016" x2="24" y2="11.5016" gradientUnits="userSpaceOnUse">
<stop stop-color="#8447FF"/>
<stop offset="1" stop-color="#AE47FF"/>
</linearGradient>
<linearGradient id="paint1_linear_5064_32763" x1="0" y1="11.5016" x2="24" y2="11.5016" gradientUnits="userSpaceOnUse">
<stop stop-color="#8447FF"/>
<stop offset="1" stop-color="#AE47FF"/>
</linearGradient>
</defs>
</svg>
