<svg width="16" height="17" viewBox="0 0 16 17" fill="none" xmlns="http://www.w3.org/2000/svg">
<path d="M16 3.75C16 5.61328 14.4883 7.125 12.625 7.125C11.7109 7.125 10.8672 6.77344 10.2695 6.21094L6.96484 7.86328C6.96484 7.96875 6.96484 8.10938 6.96484 8.25C6.96484 8.39062 6.96484 8.53125 6.96484 8.67188L10.2695 10.3242C10.8672 9.76172 11.7109 9.375 12.625 9.375C14.4883 9.375 16 10.8867 16 12.75C16 14.6133 14.4883 16.125 12.625 16.125C10.7266 16.125 9.25 14.6133 9.25 12.75C9.25 12.6094 9.25 12.4688 9.25 12.3633L5.94531 10.7109C5.34766 11.2734 4.50391 11.625 3.625 11.625C1.72656 11.625 0.25 10.1133 0.25 8.25C0.25 6.38672 1.72656 4.875 3.625 4.875C4.50391 4.875 5.34766 5.26172 5.94531 5.82422L9.25 4.17188C9.25 4.03125 9.25 3.89062 9.25 3.75C9.25 1.88672 10.7266 0.375 12.625 0.375C14.4883 0.375 16 1.88672 16 3.75ZM3.58984 9.375C4.22266 9.375 4.71484 8.88281 4.71484 8.25C4.71484 7.65234 4.22266 7.125 3.58984 7.125C2.99219 7.125 2.46484 7.65234 2.46484 8.25C2.46484 8.88281 2.99219 9.375 3.58984 9.375ZM12.625 2.625C11.9922 2.625 11.5 3.15234 11.5 3.75C11.5 4.38281 11.9922 4.875 12.625 4.875C13.2227 4.875 13.75 4.38281 13.75 3.75C13.75 3.15234 13.2227 2.625 12.625 2.625ZM12.625 13.875C13.2227 13.875 13.75 13.3828 13.75 12.75C13.75 12.1523 13.2227 11.625 12.625 11.625C11.9922 11.625 11.5 12.1523 11.5 12.75C11.5 13.3828 11.9922 13.875 12.625 13.875Z" fill="#838795"/>
</svg>
