<svg width="10" height="13" viewBox="0 0 10 13" fill="none" xmlns="http://www.w3.org/2000/svg">
<path d="M8.375 2C8.98438 2 9.5 2.51562 9.5 3.125V11.375C9.5 12.0078 8.98438 12.5 8.375 12.5H1.625C0.992188 12.5 0.5 12.0078 0.5 11.375V3.125C0.5 2.51562 0.992188 2 1.625 2H3.5C3.5 1.17969 4.15625 0.5 5 0.5C5.82031 0.5 6.5 1.17969 6.5 2H8.375ZM2.75 10.4375C3.05469 10.4375 3.3125 10.2031 3.3125 9.875C3.3125 9.57031 3.05469 9.3125 2.75 9.3125C2.42188 9.3125 2.1875 9.57031 2.1875 9.875C2.1875 10.2031 2.42188 10.4375 2.75 10.4375ZM2.75 8.1875C3.05469 8.1875 3.3125 7.95312 3.3125 7.625C3.3125 7.32031 3.05469 7.0625 2.75 7.0625C2.42188 7.0625 2.1875 7.32031 2.1875 7.625C2.1875 7.95312 2.42188 8.1875 2.75 8.1875ZM2.75 5.9375C3.05469 5.9375 3.3125 5.70312 3.3125 5.375C3.3125 5.07031 3.05469 4.8125 2.75 4.8125C2.42188 4.8125 2.1875 5.07031 2.1875 5.375C2.1875 5.70312 2.42188 5.9375 2.75 5.9375ZM5 1.4375C4.67188 1.4375 4.4375 1.69531 4.4375 2C4.4375 2.32812 4.67188 2.5625 5 2.5625C5.30469 2.5625 5.5625 2.32812 5.5625 2C5.5625 1.69531 5.30469 1.4375 5 1.4375ZM8 10.0625V9.6875C8 9.59375 7.90625 9.5 7.8125 9.5H4.4375C4.32031 9.5 4.25 9.59375 4.25 9.6875V10.0625C4.25 10.1797 4.32031 10.25 4.4375 10.25H7.8125C7.90625 10.25 8 10.1797 8 10.0625ZM8 7.8125V7.4375C8 7.34375 7.90625 7.25 7.8125 7.25H4.4375C4.32031 7.25 4.25 7.34375 4.25 7.4375V7.8125C4.25 7.92969 4.32031 8 4.4375 8H7.8125C7.90625 8 8 7.92969 8 7.8125ZM8 5.5625V5.1875C8 5.09375 7.90625 5 7.8125 5H4.4375C4.32031 5 4.25 5.09375 4.25 5.1875V5.5625C4.25 5.67969 4.32031 5.75 4.4375 5.75H7.8125C7.90625 5.75 8 5.67969 8 5.5625Z" fill="#8447FF"/>
</svg>
