<svg width="20" height="20" viewBox="0 0 20 20" fill="none" xmlns="http://www.w3.org/2000/svg">
<g id="video">
<g id="vuesax/linear/video">
<g id="video_2">
<path id="Vector" d="M10.443 17.0177H5.1763C2.54297 17.0177 1.66797 15.2677 1.66797 13.5094V6.49271C1.66797 3.85937 2.54297 2.98438 5.1763 2.98438H10.443C13.0763 2.98438 13.9513 3.85937 13.9513 6.49271V13.5094C13.9513 16.1427 13.068 17.0177 10.443 17.0177Z" stroke="#838795" stroke-width="1.25" stroke-linecap="round" stroke-linejoin="round"/>
<path id="Vector_2" d="M16.2659 14.2482L13.9492 12.6232V7.36482L16.2659 5.73982C17.3992 4.94816 18.3326 5.43149 18.3326 6.82316V13.1732C18.3326 14.5648 17.3992 15.0482 16.2659 14.2482Z" stroke="#838795" stroke-width="1.25" stroke-linecap="round" stroke-linejoin="round"/>
<path id="Vector_3" d="M9.58203 9.16797C10.2724 9.16797 10.832 8.60833 10.832 7.91797C10.832 7.22761 10.2724 6.66797 9.58203 6.66797C8.89168 6.66797 8.33203 7.22761 8.33203 7.91797C8.33203 8.60833 8.89168 9.16797 9.58203 9.16797Z" stroke="#838795" stroke-width="1.25" stroke-linecap="round" stroke-linejoin="round"/>
</g>
</g>
</g>
</svg>
